<svg width="26" height="24" viewBox="0 0 26 24" fill="none" xmlns="http://www.w3.org/2000/svg">
<g id="Search Icon">
<path id="Vector" d="M20.616 21L13.9893 14.7C13.4634 15.1 12.8586 15.4167 12.1749 15.65C11.4912 15.8833 10.7637 16 9.99231 16C8.08145 16 6.4644 15.3707 5.14117 14.112C3.81794 12.8533 3.15598 11.316 3.15527 9.5C3.15457 7.684 3.81654 6.14667 5.14117 4.888C6.4658 3.62933 8.08285 3 9.99231 3C11.9018 3 13.5192 3.62933 14.8445 4.888C16.1698 6.14667 16.8315 7.684 16.8293 9.5C16.8293 10.2333 16.7066 10.925 16.4612 11.575C16.2158 12.225 15.8827 12.8 15.4619 13.3L22.0886 19.6L20.616 21ZM9.99231 14C11.3071 14 12.4249 13.5627 13.3456 12.688C14.2663 11.8133 14.7263 10.7507 14.7256 9.5C14.7249 8.24933 14.2649 7.187 13.3456 6.313C12.4263 5.439 11.3085 5.00133 9.99231 5C8.67609 4.99867 7.55868 5.43633 6.64006 6.313C5.72144 7.18967 5.26108 8.252 5.25898 9.5C5.25687 10.748 5.71723 11.8107 6.64006 12.688C7.56288 13.5653 8.6803 14.0027 9.99231 14Z" fill="black" fill-opacity="0.5"/>
</g>
</svg>
