<svg width="19" height="18" viewBox="0 0 19 18" fill="none" xmlns="http://www.w3.org/2000/svg">
<g id="famicons:warning-outline">
<path id="Vector" d="M3.29377 15.4858H15.6312C15.8316 15.4857 16.0285 15.4367 16.2028 15.3435C16.377 15.2504 16.5227 15.1162 16.6254 14.9542C16.7281 14.7921 16.7845 14.6078 16.7889 14.4191C16.7934 14.2304 16.7458 14.0439 16.6508 13.8777L10.4825 3.08791C10.0449 2.32291 8.88011 2.32291 8.44251 3.08791L2.27416 13.8777C2.17917 14.0439 2.13157 14.2304 2.13603 14.4191C2.14048 14.6078 2.19683 14.7921 2.29957 14.9542C2.40231 15.1162 2.54793 15.2504 2.72219 15.3435C2.89645 15.4367 3.09339 15.4857 3.29377 15.4858Z" stroke="white" stroke-linecap="round" stroke-linejoin="round"/>
<path id="Vector_2" d="M9.25502 6.93369L9.46278 11.0928L9.67018 6.93539C9.67146 6.90881 9.66697 6.88227 9.65699 6.85738C9.64701 6.83249 9.63175 6.80978 9.61213 6.79063C9.59252 6.77149 9.56897 6.75631 9.54291 6.74603C9.51686 6.73575 9.48886 6.73059 9.46061 6.73084C9.43286 6.7311 9.40544 6.73659 9.37998 6.74699C9.35452 6.75739 9.33153 6.77249 9.31236 6.7914C9.2932 6.81031 9.27825 6.83264 9.2684 6.85708C9.25856 6.88151 9.25401 6.90756 9.25502 6.93369Z" stroke="white" stroke-linecap="round" stroke-linejoin="round"/>
<path id="Vector_3" d="M9.46267 13.7997C9.32238 13.7997 9.18532 13.7605 9.06881 13.6872C8.95232 13.6138 8.86167 13.5097 8.80818 13.3881C8.75469 13.2665 8.74072 13.1327 8.76797 13.0037C8.79522 12.8746 8.86252 12.756 8.96151 12.6627C9.06051 12.5695 9.18675 12.5059 9.32432 12.4801C9.46189 12.4543 9.60448 12.4676 9.73401 12.5181C9.86355 12.5687 9.97411 12.6542 10.0518 12.7637C10.1295 12.8733 10.1709 13.0019 10.1709 13.1335C10.1709 13.3099 10.0966 13.4792 9.96383 13.6042C9.83107 13.7293 9.65081 13.7997 9.46267 13.7997Z" fill="white" stroke="white" stroke-width="0.03125"/>
</g>
</svg>
